<?xml version="1.0" encoding="UTF-8"?>
<svg width="700pt" height="700pt" version="1.1" viewBox="0 0 700 700" xmlns="http://www.w3.org/2000/svg">
 <g>
  <path d="m362.76 207.2h38.5c1.1602 0 2.2734-0.46094 3.0938-1.2812 0.82031-0.82031 1.2812-1.9336 1.2812-3.0938v-38.5c0.003907-1.1602-0.45312-2.2773-1.2773-3.0977-0.82031-0.82031-1.9375-1.2812-3.0977-1.2773h-38.5c-1.1602-0.003907-2.2773 0.45703-3.0977 1.2773-0.82422 0.82031-1.2812 1.9375-1.2773 3.0977v38.5c0 1.1602 0.46094 2.2734 1.2812 3.0938 0.82031 0.82031 1.9336 1.2812 3.0938 1.2812zm4.375-38.5h29.75v29.75h-29.75z"/>
  <path d="m305.01 207.2h38.5c1.1602 0.003906 2.2773-0.45312 3.0977-1.2773 0.82422-0.82031 1.2812-1.9336 1.2773-3.0977v-38.5c0.003907-1.1602-0.45312-2.2773-1.2773-3.0977-0.82031-0.82031-1.9375-1.2812-3.0977-1.2773h-38.5c-1.1602-0.003907-2.2773 0.45703-3.0977 1.2773-0.82422 0.82031-1.2812 1.9375-1.2773 3.0977v38.5c0 2.418 1.957 4.375 4.375 4.375zm4.375-38.5h29.75v29.75h-29.75z"/>
  <path d="m362.76 264.95h38.5c1.1602 0 2.2734-0.46094 3.0938-1.2812 0.82031-0.82031 1.2812-1.9336 1.2812-3.0938v-38.5c0-1.1602-0.46094-2.2734-1.2812-3.0938-0.82031-0.82031-1.9336-1.2812-3.0938-1.2812h-38.5c-2.418 0-4.375 1.9609-4.375 4.375v38.5c0 1.1602 0.46094 2.2734 1.2812 3.0938 0.82031 0.82031 1.9336 1.2812 3.0938 1.2812zm4.375-38.5h29.75v29.75h-29.75z"/>
  <path d="m305.01 264.95h38.5c1.1602 0.003906 2.2773-0.45312 3.0977-1.2773 0.82422-0.82031 1.2812-1.9336 1.2773-3.0977v-38.5c0.003907-1.1602-0.45312-2.2773-1.2773-3.0977-0.82031-0.82031-1.9375-1.2812-3.0977-1.2773h-38.5c-2.418 0-4.375 1.9609-4.375 4.375v38.5c0 2.418 1.957 4.375 4.375 4.375zm4.375-38.5h29.75v29.75h-29.75z"/>
  <path d="m500.5 242.2c1.1602 0 2.2734-0.46094 3.0938-1.2812 0.82031-0.82031 1.2812-1.9336 1.2812-3.0938v-38.5c0.003906-1.1602-0.45312-2.2773-1.2773-3.0977-0.82031-0.82031-1.9375-1.2812-3.0977-1.2773h-38.5c-1.1602-0.003907-2.2773 0.45703-3.0977 1.2773-0.82422 0.82031-1.2812 1.9375-1.2773 3.0977v38.5c0 1.1602 0.46094 2.2734 1.2812 3.0938 0.82031 0.82031 1.9336 1.2812 3.0938 1.2812zm-34.125-38.5h29.75v29.75h-29.75z"/>
  <path d="m256.01 107.45h-38.5c-1.1602-0.003907-2.2773 0.45703-3.0977 1.2773-0.82422 0.82031-1.2812 1.9375-1.2773 3.0977v38.5c0 1.1602 0.46094 2.2734 1.2812 3.0938 0.82031 0.82031 1.9336 1.2812 3.0938 1.2812h38.5c1.1602 0.003906 2.2773-0.45312 3.0977-1.2773 0.82422-0.82031 1.2812-1.9336 1.2773-3.0977v-38.5c0.003907-1.1602-0.45312-2.2773-1.2773-3.0977-0.82031-0.82031-1.9375-1.2812-3.0977-1.2773zm-4.375 38.5h-29.75v-29.75h29.75z"/>
  <path d="m256.01 165.2h-38.5c-2.418 0-4.375 1.9609-4.375 4.375v38.5c0 1.1602 0.46094 2.2734 1.2812 3.0938 0.82031 0.82031 1.9336 1.2812 3.0938 1.2812h38.5c1.1602 0.003906 2.2773-0.45312 3.0977-1.2773 0.82422-0.82031 1.2812-1.9336 1.2773-3.0977v-38.5c0.003907-1.1602-0.45312-2.2773-1.2773-3.0977-0.82031-0.82031-1.9375-1.2812-3.0977-1.2773zm-4.375 38.5h-29.75v-29.75h29.75z"/>
  <path d="m570.1 265.21-8.0508-17.5c-0.48438-1.0547-1.3672-1.875-2.4609-2.2773-1.0898-0.40234-2.2969-0.34766-3.3477 0.14453l-35.613 16.609v-78.438c0-1.1602-0.46094-2.2734-1.2812-3.0938s-1.9336-1.2812-3.0938-1.2812h-65.625v-48.125c0-1.1602-0.46094-2.2734-1.2812-3.0938s-1.9336-1.2812-3.0938-1.2812h-153.12v-48.125c0-1.1602-0.46094-2.2734-1.2812-3.0938s-1.9336-1.2812-3.0938-1.2812h-87.5c-2.418 0-4.375 1.957-4.375 4.375v182.45l-33.094-15.594v0.003906c-1.0508-0.52344-2.2734-0.59375-3.375-0.19141-1.1094 0.39844-2.0078 1.2227-2.5039 2.2891l-8.0508 17.5c-1.0039 2.1875-0.058593 4.7734 2.1172 5.793l15.75 7.332v221.11c0 1.1602 0.46094 2.2734 1.2812 3.0938 0.82031 0.82031 1.9336 1.2812 3.0938 1.2812h375.66c1.1602 0 2.2734-0.46094 3.0938-1.2812 0.82031-0.82031 1.2812-1.9336 1.2812-3.0938v-221.04l15.855-7.4023c1.0508-0.48438 1.8633-1.3711 2.2578-2.457 0.39844-1.0859 0.34766-2.2852-0.14062-3.3359zm-119.47-77h61.25v78.066l-51.082 23.887-10.168 4.7266zm-157.5-52.5h148.75v163.26l-81.953 38.219-65.625-30.59-1.1719-0.57812zm-87.5-52.5h78.75v218.75l-78.75-36.66zm-46.008 181.72 4.375-9.5039 35.105 16.363c0.12109 0 0.17578 0.21094 0.31641 0.26172l61.984 28.77 88.164 41.109-12.547 5.8438zm73.309 230.14h-56.527v-212.57l150.25 70.105-122.16 56.891c-1.0547 0.48438-1.8711 1.3672-2.2695 2.4531-0.40234 1.0859-0.35156 2.2891 0.13281 3.3398l8.0508 17.5c0.48828 1.0547 1.3711 1.8711 2.4609 2.2695 1.0898 0.40234 2.2969 0.35156 3.3477-0.13672l0.91016-0.42188 15.75-7.2461zm226.45-0.69922h-26.25v-43.75h26.25zm35 0h-26.25v-43.75h26.25zm49 0.69922h-40.25v-48.824c0-1.1602-0.46094-2.2734-1.2812-3.0938s-1.9336-1.2812-3.0938-1.2812h-70c-2.418 0-4.375 1.957-4.375 4.375v48.824h-182.7v-71.75l301.7-140.8zm-326.86-69.824-4.3906-9.5742 126.77-59.062 22.926-10.656 86.273-40.25 23.625-11.043 84.211-39.27 4.3906 9.5547z"/>
 </g>
</svg>
